<?xml version="1.0" encoding="UTF-8" standalone="no"?>
<!DOCTYPE svg PUBLIC "-//W3C//DTD SVG 1.1//EN"
 "http://www.w3.org/Graphics/SVG/1.1/DTD/svg11.dtd">
<!-- Generated by graphviz version 14.1.3 (0)
 -->
<!-- Title: ER Pages: 1 -->
<svg width="623pt" height="527pt"
 viewBox="0.00 0.00 623.00 527.00" xmlns="http://www.w3.org/2000/svg" xmlns:xlink="http://www.w3.org/1999/xlink">
<g id="graph0" class="graph" transform="scale(1 1) rotate(0) translate(4 522.87)">
<title>ER</title>
<polygon fill="white" stroke="none" points="-4,4 -4,-522.87 618.75,-522.87 618.75,4 -4,4"/>
<!-- Student -->
<g id="node1" class="node">
<title>Student</title>
<polygon fill="#aed6f1" stroke="black" points="290.33,-378.18 175.13,-378.18 175.13,-313.38 290.33,-313.38 290.33,-378.18"/>
<text xml:space="preserve" text-anchor="middle" x="232.73" y="-341.58" font-family="Helvetica,sans-Serif" font-size="14.00">Student</text>
</g>
<!-- Student_id -->
<g id="node6" class="node">
<title>Student_id</title>
<ellipse fill="none" stroke="black" cx="73.72" cy="-395.4" rx="28.8" ry="18"/>
<text xml:space="preserve" text-anchor="start" x="64.38" y="-392.2" font-family="Helvetica,sans-Serif" font-size="14.00"> </text>
<text xml:space="preserve" text-anchor="start" x="68.27" y="-392.2" font-family="Helvetica,sans-Serif" text-decoration="underline" font-size="14.00">id</text>
<text xml:space="preserve" text-anchor="start" x="79.17" y="-392.2" font-family="Helvetica,sans-Serif" font-size="14.00"> </text>
</g>
<!-- Student&#45;&#45;Student_id -->
<g id="edge1" class="edge">
<title>Student&#45;&#45;Student_id</title>
<path fill="none" stroke="black" d="M174.87,-363.83C149.12,-371.87 120.09,-380.93 99.76,-387.28"/>
</g>
<!-- Student_phone -->
<g id="node7" class="node">
<title>Student_phone</title>
<ellipse fill="none" stroke="black" cx="306.8" cy="-486.44" rx="35.78" ry="18"/>
<ellipse fill="none" stroke="black" cx="306.8" cy="-486.44" rx="39.78" ry="22"/>
<text xml:space="preserve" text-anchor="middle" x="306.8" y="-482.24" font-family="Helvetica,sans-Serif" font-size="14.00">phone</text>
</g>
<!-- Student&#45;&#45;Student_phone -->
<g id="edge2" class="edge">
<title>Student&#45;&#45;Student_phone</title>
<path fill="none" stroke="black" d="M249.91,-378.4C263.92,-405.02 283.33,-441.87 295.47,-464.92"/>
</g>
<!-- Student_age -->
<g id="node8" class="node">
<title>Student_age</title>
<ellipse fill="none" stroke="black" stroke-dasharray="5,2" cx="167.03" cy="-500.87" rx="28.8" ry="18"/>
<text xml:space="preserve" text-anchor="middle" x="167.03" y="-496.67" font-family="Helvetica,sans-Serif" font-size="14.00">age</text>
</g>
<!-- Student&#45;&#45;Student_age -->
<g id="edge3" class="edge">
<title>Student&#45;&#45;Student_age</title>
<path fill="none" stroke="black" d="M218.79,-378.67C205.23,-410.68 185.15,-458.09 174.42,-483.41"/>
</g>
<!-- Student_address -->
<g id="node9" class="node">
<title>Student_address</title>
<ellipse fill="none" stroke="black" cx="193.32" cy="-174.98" rx="43.07" ry="18"/>
<text xml:space="preserve" text-anchor="middle" x="193.32" y="-170.78" font-family="Helvetica,sans-Serif" font-size="14.00">address</text>
</g>
<!-- Student&#45;&#45;Student_address -->
<g id="edge4" class="edge">
<title>Student&#45;&#45;Student_address</title>
<path fill="none" stroke="black" d="M225.22,-313.25C217,-277.63 204.12,-221.78 197.52,-193.18"/>
</g>
<!-- Course -->
<g id="node2" class="node">
<title>Course</title>
<polygon fill="#aed6f1" stroke="black" points="614.75,-426.92 499.55,-426.92 499.55,-362.12 614.75,-362.12 614.75,-426.92"/>
<text xml:space="preserve" text-anchor="middle" x="557.15" y="-390.32" font-family="Helvetica,sans-Serif" font-size="14.00">Course</text>
</g>
<!-- Enrollment -->
<g id="node3" class="node">
<title>Enrollment</title>
<polygon fill="#d6eaf8" stroke="black" points="575.2,-106.8 460,-106.8 460,-42 575.2,-42 575.2,-106.8"/>
<polygon fill="none" stroke="black" points="579.2,-110.8 456,-110.8 456,-38 579.2,-38 579.2,-110.8"/>
<text xml:space="preserve" text-anchor="middle" x="517.6" y="-70.2" font-family="Helvetica,sans-Serif" font-size="14.00">Enrollment</text>
</g>
<!-- Enrolls -->
<g id="node4" class="node">
<title>Enrolls</title>
<polygon fill="#ffe4b5" stroke="black" points="405.97,-380.37 320.39,-347.97 405.97,-315.57 491.55,-347.97 405.97,-380.37"/>
<text xml:space="preserve" text-anchor="middle" x="405.97" y="-343.77" font-family="Helvetica,sans-Serif" font-size="14.00">Enrolls</text>
</g>
<!-- Enrolls&#45;&#45;Student -->
<g id="edge8" class="edge">
<title>Enrolls&#45;&#45;Student</title>
<path fill="none" stroke="black" stroke-width="3" d="M321.89,-346.9C311.37,-346.77 300.8,-346.64 290.8,-346.51"/>
<text xml:space="preserve" text-anchor="middle" x="302.65" y="-350.91" font-family="Times,serif" font-size="14.00">1</text>
</g>
<!-- Enrolls&#45;&#45;Course -->
<g id="edge9" class="edge">
<title>Enrolls&#45;&#45;Course</title>
<path fill="none" stroke="black" d="M453.81,-362.7C468.25,-367.15 484.27,-372.08 499.3,-376.71"/>
<text xml:space="preserve" text-anchor="middle" x="471.28" y="-373.84" font-family="Times,serif" font-size="14.00">N</text>
</g>
<!-- HasEnrollment -->
<g id="node5" class="node">
<title>HasEnrollment</title>
<polygon fill="#ffe4b5" stroke="black" points="455.43,-258.91 321.06,-226.51 455.43,-194.11 589.8,-226.51 455.43,-258.91"/>
<polygon fill="none" stroke="black" points="455.43,-263.03 304,-226.51 455.43,-190 606.87,-226.51 455.43,-263.03"/>
<text xml:space="preserve" text-anchor="middle" x="455.43" y="-222.31" font-family="Helvetica,sans-Serif" font-size="14.00">HasEnrollment</text>
</g>
<!-- Student_address_street -->
<g id="node10" class="node">
<title>Student_address_street</title>
<ellipse fill="none" stroke="black" cx="323.85" cy="-72.98" rx="33.15" ry="18"/>
<text xml:space="preserve" text-anchor="middle" x="323.85" y="-68.78" font-family="Helvetica,sans-Serif" font-size="14.00">street</text>
</g>
<!-- Student_address&#45;&#45;Student_address_street -->
<g id="edge5" class="edge">
<title>Student_address&#45;&#45;Student_address_street</title>
<path fill="none" stroke="black" d="M214,-158.81C238.88,-139.38 280.3,-107.01 304.54,-88.06"/>
</g>
<!-- Student_address_city -->
<g id="node11" class="node">
<title>Student_address_city</title>
<ellipse fill="none" stroke="black" cx="28.8" cy="-147.16" rx="28.8" ry="18"/>
<text xml:space="preserve" text-anchor="middle" x="28.8" y="-142.96" font-family="Helvetica,sans-Serif" font-size="14.00">city</text>
</g>
<!-- Student_address&#45;&#45;Student_address_city -->
<g id="edge6" class="edge">
<title>Student_address&#45;&#45;Student_address_city</title>
<path fill="none" stroke="black" d="M153.07,-168.17C123.3,-163.14 83.48,-156.4 57.03,-151.93"/>
</g>
<!-- Student_address_zip -->
<g id="node12" class="node">
<title>Student_address_zip</title>
<ellipse fill="none" stroke="black" cx="161.33" cy="-18" rx="28.8" ry="18"/>
<text xml:space="preserve" text-anchor="middle" x="161.33" y="-13.8" font-family="Helvetica,sans-Serif" font-size="14.00">zip</text>
</g>
<!-- Student_address&#45;&#45;Student_address_zip -->
<g id="edge7" class="edge">
<title>Student_address&#45;&#45;Student_address_zip</title>
<path fill="none" stroke="black" d="M189.59,-156.66C183.42,-126.41 171.18,-66.37 165.03,-36.2"/>
</g>
</g>
</svg>
